<svg xmlns="http://www.w3.org/2000/svg" width="20" height="20" viewBox="0 0 20 20">
  <path id="search-icon-red" d="M20,18.447a1.427,1.427,0,0,1-.388,1.165A2.082,2.082,0,0,1,18.447,20a1.483,1.483,0,0,1-.971-.388L13.4,15.534a8.764,8.764,0,0,1-4.854,1.359,9.07,9.07,0,0,1-3.3-.583,9.371,9.371,0,0,1-2.718-1.748A13.783,13.783,0,0,1,.583,11.845,9.863,9.863,0,0,1,0,8.544a9.07,9.07,0,0,1,.583-3.3A9.747,9.747,0,0,1,2.524,2.524,9.747,9.747,0,0,1,5.243.583,9.07,9.07,0,0,1,8.544,0a9.863,9.863,0,0,1,3.3.583,13.783,13.783,0,0,1,2.718,1.942,6.583,6.583,0,0,1,1.748,2.718,9.148,9.148,0,0,1,.777,3.3,7.9,7.9,0,0,1-1.553,4.66l4.078,4.272c.388.194.388.583.388.971m-7.767-6.214a4.782,4.782,0,0,0,1.748-3.689A4.889,4.889,0,0,0,12.233,4.66,4.591,4.591,0,0,0,8.544,3.107,4.986,4.986,0,0,0,4.66,4.66,5.422,5.422,0,0,0,3.107,8.544,5.3,5.3,0,0,0,4.66,12.233a4.986,4.986,0,0,0,3.883,1.553,4.591,4.591,0,0,0,3.689-1.553" fill="#ed2939"/>
</svg>
